<svg width="24" height="24" viewBox="0 0 24 24" fill="none" xmlns="http://www.w3.org/2000/svg">
<path fill-rule="evenodd" clip-rule="evenodd" d="M22.775 8C22.9245 8.65616 23 9.32702 23 10H14V1C16.0394 0.999992 18.0183 1.6926 19.6125 2.96437C21.2068 4.23613 22.3218 6.01163 22.775 8ZM20.708 8C20.3759 6.88605 19.7715 5.87236 18.9496 5.05041C18.1276 4.22846 17.1139 3.62414 16 3.292V8H20.708Z" fill="white"/>
<path fill-rule="evenodd" clip-rule="evenodd" d="M1 14C0.999995 12.6482 1.30452 11.3137 1.89097 10.0957C2.47742 8.87764 3.33072 7.80737 4.3875 6.96435C5.44428 6.12132 6.6774 5.52719 7.99529 5.22607C9.31317 4.92496 10.682 4.92459 12 5.225V12H18.775C19.0565 13.2351 19.0741 14.5158 18.8266 15.7581C18.5791 17.0005 18.0721 18.1767 17.3388 19.2096C16.6055 20.2426 15.6624 21.1091 14.5712 21.7526C13.4799 22.396 12.2652 22.8018 11.0063 22.9434C9.74746 23.0851 8.47289 22.9593 7.26596 22.5745C6.05903 22.1897 4.94694 21.5544 4.00242 20.7102C3.05791 19.866 2.30224 18.832 1.78486 17.6756C1.26747 16.5193 1.00002 15.2668 1 14ZM16.804 14H10V7.196C8.6543 7.196 7.33881 7.59505 6.2199 8.34268C5.10099 9.09031 4.2289 10.153 3.71392 11.3962C3.19895 12.6395 3.0642 14.0075 3.32674 15.3274C3.58927 16.6472 4.23729 17.8596 5.18885 18.8112C6.1404 19.7627 7.35276 20.4107 8.67261 20.6733C9.99245 20.9358 11.3605 20.8011 12.6038 20.2861C13.847 19.7711 14.9097 18.899 15.6573 17.7801C16.405 16.6612 16.804 15.3457 16.804 14Z" fill="white"/>
</svg>
