<svg width="30" height="20" viewBox="0 0 30 20" fill="none" xmlns="http://www.w3.org/2000/svg">
<g clip-path="url(#clip0_113_137)">
<path d="M14.5703 2.77344C13.4592 2.03559 12.2396 1.66667 10.9115 1.66667C10.0174 1.66667 9.16016 1.84245 8.33984 2.19401C7.51953 2.54557 6.81424 3.01649 6.22396 3.60677C5.63368 4.19705 5.16276 4.90017 4.8112 5.71615C4.45964 6.53212 4.28385 7.38715 4.28385 8.28125C4.28385 9.18403 4.45964 10.0434 4.8112 10.8594C5.16276 11.6753 5.63368 12.3785 6.22396 12.9687C6.81424 13.559 7.51736 14.0299 8.33333 14.3815C9.14931 14.7331 10.0087 14.9089 10.9115 14.9089C12.2396 14.9089 13.4592 14.5399 14.5703 13.8021C13.4332 12.8733 12.6606 11.7209 12.2526 10.3451C11.8446 8.96918 11.8468 7.59549 12.2591 6.22396C12.6714 4.85243 13.4418 3.70226 14.5703 2.77344ZM15 3.08594C13.9062 3.94531 13.1597 5.02821 12.7604 6.33464C12.3611 7.64106 12.3589 8.94531 12.7539 10.2474C13.1489 11.5495 13.8976 12.6302 15 13.4896C16.1024 12.6302 16.8511 11.5495 17.2461 10.2474C17.6411 8.94531 17.6389 7.64106 17.2396 6.33464C16.8403 5.02821 16.0937 3.94531 15 3.08594ZM15.4297 2.77344C16.5582 3.70226 17.3286 4.8546 17.7409 6.23047C18.1532 7.60634 18.1554 8.9822 17.7474 10.3581C17.3394 11.7339 16.5668 12.8819 15.4297 13.8021C16.5408 14.5399 17.7604 14.9089 19.0885 14.9089C19.9913 14.9089 20.8507 14.7331 21.6667 14.3815C22.4826 14.0299 23.1858 13.559 23.776 12.9687C24.3663 12.3785 24.8372 11.6753 25.1888 10.8594C25.5404 10.0434 25.7161 9.18403 25.7161 8.28125C25.7161 7.38715 25.5404 6.53212 25.1888 5.71615C24.8372 4.90017 24.3663 4.19705 23.776 3.60677C23.1858 3.01649 22.4805 2.54557 21.6602 2.19401C20.8398 1.84245 19.9826 1.66667 19.0885 1.66667C17.7604 1.66667 16.5408 2.03559 15.4297 2.77344ZM25.0781 12.1745H25.1693V12.1354H24.9479V12.1745H25.0391V12.3958H25.0781V12.1745ZM25.4557 12.3958H25.5078V12.1354H25.4427L25.3646 12.3047L25.2865 12.1354H25.2214V12.3958H25.2604V12.2005L25.3385 12.3698H25.3906L25.4557 12.2005V12.3958ZM25.3516 18.125V18.151H25.2865V18.112H25.3516V18.125ZM25.3516 18.2422H25.3906L25.3385 18.1771H25.3646L25.3776 18.1641C25.3863 18.1554 25.3906 18.1424 25.3906 18.125C25.3906 18.1076 25.3863 18.0946 25.3776 18.0859L25.3646 18.0729H25.2474V18.2422H25.2865V18.1771H25.2995L25.3516 18.2422ZM8.91927 17.3568C8.91927 17.1918 8.96701 17.0573 9.0625 16.9531C9.15799 16.849 9.28819 16.7969 9.45312 16.7969C9.60937 16.7969 9.73524 16.8511 9.83073 16.9596C9.92622 17.0681 9.97396 17.2005 9.97396 17.3568C9.97396 17.5217 9.92622 17.6562 9.83073 17.7604C9.73524 17.8646 9.60937 17.9167 9.45312 17.9167C9.28819 17.9167 9.15799 17.8646 9.0625 17.7604C8.96701 17.6562 8.91927 17.5217 8.91927 17.3568ZM15.0781 16.7839C15.3385 16.7839 15.4905 16.9227 15.5339 17.2005H14.6224C14.6658 16.9227 14.8177 16.7839 15.0781 16.7839ZM19.7135 17.3568C19.7135 17.1918 19.7613 17.0573 19.8568 16.9531C19.9523 16.849 20.0781 16.7969 20.2344 16.7969C20.3906 16.7969 20.5187 16.8511 20.6185 16.9596C20.7183 17.0681 20.7682 17.2005 20.7682 17.3568C20.7682 17.5217 20.7205 17.6562 20.625 17.7604C20.5295 17.8646 20.3993 17.9167 20.2344 17.9167C20.0781 17.9167 19.9523 17.8646 19.8568 17.7604C19.7613 17.6562 19.7135 17.5217 19.7135 17.3568ZM23.2552 17.3568C23.2552 17.2005 23.3051 17.0681 23.4049 16.9596C23.5048 16.8511 23.6328 16.7969 23.7891 16.7969C23.9453 16.7969 24.0734 16.8511 24.1732 16.9596C24.273 17.0681 24.3229 17.2005 24.3229 17.3568C24.3229 17.5217 24.273 17.6562 24.1732 17.7604C24.0734 17.8646 23.9453 17.9167 23.7891 17.9167C23.6328 17.9167 23.5048 17.8624 23.4049 17.7539C23.3051 17.6454 23.2552 17.513 23.2552 17.3568ZM25.3125 18.2943C25.2951 18.2943 25.2778 18.2899 25.2604 18.2812C25.2517 18.2812 25.2387 18.2726 25.2214 18.2552C25.204 18.2378 25.1953 18.2248 25.1953 18.2161C25.1866 18.1988 25.1823 18.1814 25.1823 18.1641C25.1823 18.138 25.1866 18.1207 25.1953 18.112C25.1953 18.0946 25.204 18.0773 25.2214 18.0599L25.2344 18.0469C25.2517 18.0469 25.2604 18.0425 25.2604 18.0339C25.2778 18.0252 25.2951 18.0208 25.3125 18.0208C25.3385 18.0208 25.3559 18.0252 25.3646 18.0339L25.4167 18.0599L25.4427 18.112V18.125C25.4514 18.1424 25.4557 18.1554 25.4557 18.1641L25.4427 18.1771V18.2161L25.4297 18.2292L25.4167 18.2552C25.3993 18.2726 25.3819 18.2812 25.3646 18.2812C25.3559 18.2899 25.3385 18.2943 25.3125 18.2943ZM7.79948 18.2422H8.1901V17.1354C8.1901 16.9271 8.12717 16.76 8.0013 16.6341C7.87543 16.5082 7.70399 16.441 7.48698 16.4323C7.2092 16.4323 7.00521 16.5365 6.875 16.7448C6.75347 16.5365 6.55816 16.4323 6.28906 16.4323C6.08073 16.4323 5.91146 16.5191 5.78125 16.6927V16.4844H5.39062V18.2422H5.78125V17.2656C5.78125 16.9531 5.92448 16.7969 6.21094 16.7969C6.47135 16.7969 6.60156 16.9531 6.60156 17.2656V18.2422H6.97917V17.2656C6.97917 16.9531 7.1224 16.7969 7.40885 16.7969C7.66927 16.7969 7.79948 16.9531 7.79948 17.2656V18.2422ZM9.96094 18.2422H10.3385V16.4844H9.96094V16.6927C9.81337 16.5191 9.62674 16.4323 9.40104 16.4323C9.14931 16.4323 8.94097 16.5191 8.77604 16.6927C8.61111 16.8663 8.52865 17.0877 8.52865 17.3568C8.52865 17.6259 8.61111 17.8472 8.77604 18.0208C8.94097 18.1944 9.14931 18.2812 9.40104 18.2812C9.6441 18.2812 9.83073 18.1944 9.96094 18.0208V18.2422ZM12.2786 17.7083C12.2786 17.4132 12.0747 17.2396 11.6667 17.1875L11.4844 17.1615C11.2847 17.1267 11.1849 17.066 11.1849 16.9792C11.1849 16.849 11.2934 16.7839 11.5104 16.7839C11.7101 16.7839 11.8967 16.8316 12.0703 16.9271L12.2266 16.6146C12.0356 16.4931 11.7969 16.4323 11.5104 16.4323C11.2847 16.4323 11.1068 16.4844 10.9766 16.5885C10.8464 16.6927 10.7812 16.8316 10.7812 17.0052C10.7812 17.2917 10.9852 17.4609 11.3932 17.513L11.5625 17.5391C11.7708 17.5738 11.875 17.6345 11.875 17.7214C11.875 17.8689 11.7405 17.9427 11.4714 17.9427C11.2543 17.9427 11.059 17.8819 10.8854 17.7604L10.7161 18.0599C10.9332 18.2075 11.1849 18.2812 11.4714 18.2812C11.7231 18.2812 11.9206 18.2292 12.0638 18.125C12.207 18.0208 12.2786 17.8819 12.2786 17.7083ZM13.9714 18.151L13.8672 17.8255C13.7543 17.8863 13.6415 17.9167 13.5286 17.9167C13.3637 17.9167 13.2812 17.8212 13.2812 17.6302V16.8359H13.9062V16.4844H13.2812V15.9505H12.8906V16.4844H12.526V16.8359H12.8906V17.6302C12.8906 18.0642 13.0946 18.2812 13.5026 18.2812C13.6849 18.2812 13.8411 18.2378 13.9714 18.151ZM15.0911 16.4323C14.8394 16.4323 14.6311 16.5191 14.4661 16.6927C14.3012 16.8663 14.2187 17.0877 14.2187 17.3568C14.2187 17.6345 14.3034 17.8581 14.4727 18.0273C14.6419 18.1966 14.8568 18.2812 15.1172 18.2812C15.4036 18.2812 15.6424 18.1988 15.8333 18.0339L15.651 17.7474C15.4948 17.8776 15.3255 17.9427 15.1432 17.9427C14.8481 17.9427 14.6701 17.7995 14.6094 17.513H15.9245V17.3568C15.9245 17.079 15.8464 16.8555 15.6901 16.6862C15.5339 16.5169 15.3342 16.4323 15.0911 16.4323ZM17.1615 16.4323C16.9618 16.4323 16.8099 16.5191 16.7057 16.6927V16.4844H16.3151V18.2422H16.7057V17.2526C16.7057 16.9488 16.8316 16.7969 17.0833 16.7969C17.1701 16.7969 17.2483 16.8142 17.3177 16.849L17.4349 16.4844C17.3568 16.4497 17.2656 16.4323 17.1615 16.4323ZM17.5521 17.3568C17.5521 17.6259 17.6367 17.8472 17.806 18.0208C17.9753 18.1944 18.2031 18.2812 18.4896 18.2812C18.7413 18.2812 18.9497 18.2118 19.1146 18.0729L18.9323 17.7604C18.776 17.8733 18.6241 17.9253 18.4766 17.9167C18.3203 17.9167 18.1923 17.8646 18.0924 17.7604C17.9926 17.6562 17.9427 17.5217 17.9427 17.3568C17.9427 17.1918 17.9926 17.0573 18.0924 16.9531C18.1923 16.849 18.3203 16.7969 18.4766 16.7969C18.6415 16.7969 18.7934 16.849 18.9323 16.9531L19.1146 16.6406C18.941 16.5017 18.7326 16.4323 18.4896 16.4323C18.2031 16.4323 17.9753 16.5191 17.806 16.6927C17.6367 16.8663 17.5521 17.0877 17.5521 17.3568ZM20.7422 18.2422H21.1328V16.4844H20.7422V16.6927C20.612 16.5191 20.4297 16.4323 20.1953 16.4323C19.9436 16.4323 19.7331 16.5191 19.5638 16.6927C19.3945 16.8663 19.3099 17.0877 19.3099 17.3568C19.3099 17.6259 19.3945 17.8472 19.5638 18.0208C19.7331 18.1944 19.9436 18.2812 20.1953 18.2812C20.4384 18.2812 20.6207 18.1944 20.7422 18.0208V18.2422ZM22.474 16.4323C22.2743 16.4323 22.1224 16.5191 22.0182 16.6927V16.4844H21.6406V18.2422H22.0182V17.2526C22.0182 16.9488 22.1441 16.7969 22.3958 16.7969C22.4826 16.7969 22.5608 16.8142 22.6302 16.849L22.7474 16.4844C22.678 16.4497 22.5868 16.4323 22.474 16.4323ZM24.2969 18.2422H24.6745V15.7682H24.2969V16.6927C24.1667 16.5191 23.98 16.4323 23.737 16.4323C23.4939 16.4323 23.2878 16.5213 23.1185 16.6992C22.9492 16.8772 22.8646 17.0964 22.8646 17.3568C22.8646 17.6172 22.9492 17.8364 23.1185 18.0143C23.2878 18.1923 23.4939 18.2812 23.737 18.2812C23.9887 18.2812 24.1753 18.1944 24.2969 18.0208V18.2422ZM25.3125 17.9818L25.2865 17.9948H25.2474C25.23 18.0035 25.2127 18.0165 25.1953 18.0339C25.1693 18.0425 25.1562 18.0599 25.1562 18.0859C25.1476 18.1033 25.1432 18.1293 25.1432 18.1641C25.1432 18.1901 25.1476 18.2118 25.1562 18.2292C25.1562 18.2465 25.1693 18.2639 25.1953 18.2812C25.2127 18.2986 25.23 18.3116 25.2474 18.3203C25.2648 18.329 25.2865 18.3333 25.3125 18.3333C25.3472 18.3333 25.3733 18.329 25.3906 18.3203C25.3906 18.3116 25.3993 18.303 25.4167 18.2943L25.4427 18.2812C25.4514 18.2726 25.4644 18.2552 25.4818 18.2292C25.4905 18.2118 25.4948 18.1901 25.4948 18.1641C25.4948 18.1293 25.4905 18.1033 25.4818 18.0859C25.4731 18.0773 25.4601 18.0599 25.4427 18.0339C25.4427 18.0252 25.434 18.0165 25.4167 18.0078L25.3906 17.9948C25.3819 17.9948 25.3689 17.9926 25.3516 17.9883C25.3342 17.9839 25.3212 17.9818 25.3125 17.9818ZM30 1.66667V18.3333C30 18.7847 29.8351 19.1753 29.5052 19.5052C29.1753 19.8351 28.7847 20 28.3333 20H1.66667C1.21528 20 0.824653 19.8351 0.494792 19.5052C0.164931 19.1753 0 18.7847 0 18.3333V1.66667C0 1.21528 0.164931 0.824653 0.494792 0.494792C0.824653 0.164931 1.21528 0 1.66667 0H28.3333C28.7847 0 29.1753 0.164931 29.5052 0.494792C29.8351 0.824653 30 1.21528 30 1.66667Z" fill="white"/>
</g>
<defs>
<clipPath id="clip0_113_137">
<rect width="30" height="20" fill="white"/>
</clipPath>
</defs>
</svg>
