<svg width="30" height="30" viewBox="0 0 30 30" fill="none" xmlns="http://www.w3.org/2000/svg">
<path d="M12.1438 4.42125L24.5675 9.3825C24.8955 9.51361 25.1631 9.76184 25.3184 10.0791C25.4737 10.3963 25.5057 10.7599 25.4081 11.0994L21.7894 23.6763C21.7003 23.986 21.5438 24.2722 21.3311 24.5143C21.1183 24.7565 20.8547 24.9486 20.559 25.0768C20.2633 25.2051 19.9429 25.2663 19.6207 25.2562C19.2986 25.246 18.9827 25.1647 18.6956 25.0181L5.02189 18.0375C4.64617 17.8456 4.31677 17.5742 4.0566 17.242C3.79643 16.9099 3.61174 16.5251 3.51538 16.1144C3.41901 15.7036 3.41329 15.2768 3.4986 14.8637C3.58392 14.4505 3.75822 14.0609 4.00939 13.7219L10.5688 4.86875C10.7451 4.63083 10.9953 4.45797 11.2802 4.37713C11.5651 4.2963 11.8687 4.3114 12.1438 4.42125Z" stroke="white" stroke-width="0.5" stroke-linecap="round" stroke-linejoin="round"/>
<path d="M5.71495 9.02812L15.675 3.93125C16.007 3.76102 16.3863 3.70652 16.7528 3.77637C17.1193 3.84623 17.452 4.03645 17.6981 4.31687L26.2562 14.0487C26.4581 14.2783 26.5672 14.575 26.562 14.8808C26.5568 15.1865 26.4377 15.4793 26.2281 15.7019L16.8912 25.6187C16.6892 25.8331 16.4427 26.0007 16.1691 26.1098C15.8954 26.2188 15.6013 26.2666 15.3072 26.2499C15.0131 26.2332 14.7262 26.1523 14.4667 26.0129C14.2072 25.8735 13.9813 25.6791 13.805 25.4431L4.72495 13.2887C4.47565 12.9551 4.30218 12.571 4.21664 12.1633C4.13111 11.7557 4.13557 11.3343 4.22972 10.9285C4.32387 10.5227 4.50543 10.1424 4.76174 9.81409C5.01805 9.48575 5.34293 9.21731 5.7137 9.0275L5.71495 9.02812Z" stroke="white" stroke-width="0.5" stroke-linecap="round" stroke-linejoin="round"/>
</svg>
