<svg width="17" height="24" viewBox="0 0 17 24" fill="none" xmlns="http://www.w3.org/2000/svg">
<path d="M8.05286 12.0045C7.83151 11.2857 7.83594 9.89766 7.96432 9.89766C8.3362 9.89766 8.30078 11.5553 8.05286 12.0045ZM7.9776 14.1248C7.63672 15.0322 7.21172 16.0699 6.72031 16.9414C7.53047 16.627 8.44687 16.1687 9.50495 15.9576C8.94271 15.5264 8.4026 14.9064 7.9776 14.1248ZM3.81172 19.7311C3.81172 19.767 4.39609 19.4885 5.35677 17.9252C5.06016 18.2082 4.06849 19.0258 3.81172 19.7311ZM10.9792 7.6875H17V22.4219C17 23.0193 16.5263 23.5 15.9375 23.5H1.0625C0.473698 23.5 0 23.0193 0 22.4219V1.57812C0 0.980664 0.473698 0.5 1.0625 0.5H9.91667V6.60938C9.91667 7.20234 10.3948 7.6875 10.9792 7.6875ZM10.625 15.4051C9.73958 14.857 9.15078 14.1023 8.73464 12.9883C8.93385 12.1572 9.24818 10.8949 9.00911 10.1043C8.80104 8.78359 7.13203 8.91387 6.89297 9.79883C6.67161 10.6209 6.87526 11.7799 7.25156 13.2578C6.73802 14.4977 5.98099 16.1598 5.44531 17.1121C5.44089 17.1121 5.44089 17.1166 5.43646 17.1166C4.23672 17.741 2.17813 19.1156 3.0237 20.1713C3.27161 20.4812 3.73203 20.6205 3.97552 20.6205C4.76797 20.6205 5.55599 19.8119 6.68047 17.8443C7.82266 17.4625 9.07552 16.9863 10.1779 16.8021C11.1385 17.3322 12.263 17.6781 13.0112 17.6781C14.3039 17.6781 14.3924 16.2406 13.8833 15.7285C13.268 15.1176 11.4794 15.2928 10.625 15.4051ZM16.6901 5.2168L12.3516 0.814453C12.1523 0.612305 11.8823 0.5 11.599 0.5H11.3333V6.25H17V5.97598C17 5.69297 16.8893 5.41895 16.6901 5.2168ZM13.4096 16.6854C13.5911 16.5641 13.299 16.1508 11.5148 16.2811C13.1573 16.9908 13.4096 16.6854 13.4096 16.6854Z" fill="white"/>
</svg>
