<svg width="20" height="20" viewBox="0 0 20 20" fill="none" xmlns="http://www.w3.org/2000/svg">
<g opacity="0.6">
<path d="M17.2583 15.5917C17.336 15.514 17.3977 15.4217 17.4397 15.3202C17.4818 15.2187 17.5034 15.1099 17.5034 15C17.5034 14.7781 17.4153 14.5653 17.2583 14.4083C17.1014 14.2514 16.8886 14.1633 16.6667 14.1633C16.4447 14.1633 16.2319 14.2514 16.075 14.4083L15 15.4917L15 2.50001C15 2.27899 14.9122 2.06703 14.7559 1.91075C14.5996 1.75447 14.3877 1.66667 14.1667 1.66667C13.9457 1.66667 13.7337 1.75447 13.5774 1.91075C13.4211 2.06703 13.3333 2.27899 13.3333 2.50001L13.3333 15.4917L12.2583 14.4083C12.1809 14.3302 12.0887 14.2682 11.9871 14.2259C11.8856 14.1836 11.7767 14.1618 11.6667 14.1618C11.5567 14.1618 11.4477 14.1836 11.3462 14.2259C11.2446 14.2682 11.1525 14.3302 11.075 14.4083C10.9969 14.4858 10.9349 14.578 10.8926 14.6795C10.8503 14.7811 10.8285 14.89 10.8285 15C10.8285 15.11 10.8503 15.2189 10.8926 15.3205C10.9349 15.422 10.9969 15.5142 11.075 15.5917L13.575 18.0917C13.6525 18.1698 13.7446 18.2318 13.8462 18.2741C13.9477 18.3164 14.0567 18.3382 14.1667 18.3382C14.2767 18.3382 14.3856 18.3164 14.4871 18.2741C14.5887 18.2318 14.6809 18.1698 14.7583 18.0917L17.2583 15.5917Z" fill="#BABEC8"/>
<path d="M6.66666 17.5L6.66666 4.50833L7.74166 5.59167C7.89858 5.74859 8.11141 5.83674 8.33333 5.83674C8.55525 5.83674 8.76808 5.74859 8.925 5.59167C9.08192 5.43475 9.17007 5.22192 9.17007 5C9.17007 4.77808 9.08192 4.56525 8.925 4.40833L6.425 1.90833C6.34753 1.83023 6.25536 1.76823 6.15381 1.72592C6.05226 1.68362 5.94334 1.66183 5.83333 1.66183C5.72332 1.66183 5.6144 1.68362 5.51285 1.72592C5.4113 1.76823 5.31913 1.83023 5.24167 1.90833L2.74166 4.40833C2.66356 4.4858 2.60156 4.57797 2.55925 4.67952C2.51695 4.78107 2.49517 4.88999 2.49517 5C2.49517 5.11001 2.51695 5.21893 2.55925 5.32048C2.60156 5.42203 2.66356 5.5142 2.74166 5.59167C2.81913 5.66977 2.9113 5.73177 3.01285 5.77408C3.1144 5.81638 3.22332 5.83816 3.33333 5.83816C3.44334 5.83816 3.55226 5.81638 3.65381 5.77408C3.75536 5.73177 3.84753 5.66977 3.925 5.59167L5 4.50833L5 17.5C5 17.721 5.08779 17.933 5.24407 18.0893C5.40035 18.2455 5.61232 18.3333 5.83333 18.3333C6.05434 18.3333 6.26631 18.2455 6.42259 18.0893C6.57887 17.933 6.66666 17.721 6.66666 17.5Z" fill="#BABEC8"/>
</g>
</svg>
