<svg width="45" height="14" viewBox="0 0 45 14" fill="none" xmlns="http://www.w3.org/2000/svg">
<path d="M19.4999 13.798H15.8546L18.1347 0.245651H21.7798L19.4999 13.798Z" fill="white"/>
<path d="M32.7145 0.576971C31.9955 0.302758 30.8551 -7.62939e-06 29.4449 -7.62939e-06C25.8451 -7.62939e-06 23.3101 1.84533 23.2945 4.4836C23.2646 6.43011 25.1095 7.51125 26.4893 8.16028C27.8997 8.82348 28.3791 9.25636 28.3791 9.84752C28.3647 10.7554 27.2394 11.1739 26.1899 11.1739C24.7345 11.1739 23.9547 10.9582 22.7697 10.4531L22.2897 10.2365L21.7795 13.2787C22.6345 13.6532 24.2097 13.9854 25.8451 14C29.67 14 32.1601 12.1832 32.1896 9.37172C32.2042 7.82896 31.23 6.64683 29.1298 5.68086C27.8548 5.06077 27.074 4.64265 27.074 4.00818C27.0889 3.43139 27.7344 2.84062 29.1736 2.84062C30.3587 2.81168 31.2294 3.08551 31.889 3.35953L32.2187 3.50344L32.7145 0.576971Z" fill="white"/>
<path d="M37.5594 8.9969C37.8597 8.21833 39.0148 5.20505 39.0148 5.20505C38.9997 5.23399 39.3144 4.41212 39.4944 3.90757L39.7492 5.07533C39.7492 5.07533 40.4395 8.31932 40.5894 8.9969C40.0197 8.9969 38.2795 8.9969 37.5594 8.9969ZM42.0591 0.245651H39.2395C38.37 0.245651 37.7093 0.490546 37.3342 1.3701L31.9196 13.7978H35.7445C35.7445 13.7978 36.3742 12.1251 36.5095 11.7649C36.9291 11.7649 40.65 11.7649 41.1898 11.7649C41.2945 12.2407 41.6248 13.7978 41.6248 13.7978H45L42.0591 0.245651Z" fill="white"/>
<path d="M12.8099 0.245651L9.23994 9.48708L8.84983 7.61281C8.18982 5.45015 6.11988 3.10046 3.80994 1.93213L7.0799 13.7837H10.9347L16.6645 0.245651H12.8099Z" fill="white"/>
<path d="M5.92496 0.245651H0.0600008L0 0.519481C4.57503 1.64412 7.60499 4.35502 8.84986 7.61338L7.57489 1.38485C7.36498 0.519289 6.71992 0.274203 5.92496 0.245651Z" fill="white"/>
</svg>
