<svg width="32" height="32" viewBox="0 0 32 32" fill="none" xmlns="http://www.w3.org/2000/svg">
<path d="M19.8 5.26667V10.3333H17.8V5.26667C17.8 4.90667 17.48 4.73334 17.2667 4.73334C17.2 4.73334 17.1334 4.74667 17.0667 4.77334L6.49337 8.76C5.78671 9.02667 5.33337 9.69334 5.33337 10.4533V11.3467C4.12004 12.2533 3.33337 13.7067 3.33337 15.3467V10.4533C3.33337 8.86667 4.30671 7.45334 5.78671 6.89334L16.3734 2.89334C16.6667 2.78667 16.9734 2.73334 17.2667 2.73334C18.6 2.73334 19.8 3.81334 19.8 5.26667Z" fill="#0ACF83"/>
<path d="M28.6666 19.3333V20.6667C28.6666 21.0267 28.3866 21.32 28.0133 21.3333H26.0666C25.36 21.3333 24.72 20.8133 24.6666 20.12C24.6266 19.7067 24.7866 19.32 25.0533 19.0533C25.2933 18.8 25.6266 18.6667 25.9866 18.6667H28C28.3866 18.68 28.6666 18.9733 28.6666 19.3333Z" fill="#0ACF83"/>
<path d="M25.9734 17.2667H27.3334C28.0667 17.2667 28.6667 16.6667 28.6667 15.9333V15.3467C28.6667 12.5867 26.4134 10.3333 23.6534 10.3333H8.34671C7.21337 10.3333 6.17337 10.7067 5.33337 11.3467C4.12004 12.2533 3.33337 13.7067 3.33337 15.3467V24.32C3.33337 27.08 5.58671 29.3333 8.34671 29.3333H23.6534C26.4134 29.3333 28.6667 27.08 28.6667 24.32V24.0667C28.6667 23.3333 28.0667 22.7333 27.3334 22.7333H26.1734C24.8934 22.7333 23.6667 21.9467 23.3334 20.7067C23.0534 19.6933 23.3867 18.72 24.0534 18.0667C24.5467 17.56 25.2267 17.2667 25.9734 17.2667ZM18.6667 17H9.33337C8.78671 17 8.33337 16.5467 8.33337 16C8.33337 15.4533 8.78671 15 9.33337 15H18.6667C19.2134 15 19.6667 15.4533 19.6667 16C19.6667 16.5467 19.2134 17 18.6667 17Z" fill="#0ACF83"/>
</svg>
